<?xml version="1.0" encoding="utf-8"?><svg xmlns="http://www.w3.org/2000/svg" viewBox="0 0 72.82 43.63"><defs><style>.cls-1{fill:#b0ada7;}.cls-2{fill:none;}</style></defs><title>aws-2</title><g id="Layer_2" data-name="Layer 2"><g id="Layer_1-2" data-name="Layer 1"><path class="cls-1" d="M14.68,19.89a5,5,0,0,0,.18,1.44,5.92,5.92,0,0,0,.51,1.15.77.77,0,0,1,.12.35.6.6,0,0,1-.29.46l-1,.69a.52.52,0,0,1-.4.11.5.5,0,0,1-.46-.23,7,7,0,0,1-.58-.74c-.17-.29-.34-.58-.51-.92A6,6,0,0,1,7.6,24.38a4.36,4.36,0,0,1-3.17-1.15,4,4,0,0,1-1.15-3.05A4.09,4.09,0,0,1,4.72,16.9a5.9,5.9,0,0,1,3.92-1.27c.52,0,1.09.06,1.67.12s1.21.23,1.84.34V14.94a3.32,3.32,0,0,0-.75-2.53,3.57,3.57,0,0,0-2.59-.75,5.92,5.92,0,0,0-1.73.23c-.57.12-1.15.35-1.73.52-.23.12-.46.17-.57.23a.46.46,0,0,1-.23.06c-.23,0-.35-.17-.35-.52v-.81a1.42,1.42,0,0,1,.12-.57,1.05,1.05,0,0,1,.46-.35,8.46,8.46,0,0,1,2-.69,8.93,8.93,0,0,1,2.47-.29,5.71,5.71,0,0,1,4.15,1.27,5.4,5.4,0,0,1,1.32,3.92ZM8.24,22.31A5.25,5.25,0,0,0,9.85,22a3,3,0,0,0,1.49-1,2.18,2.18,0,0,0,.52-1A4.93,4.93,0,0,0,12,18.57v-.69a13.93,13.93,0,0,0-1.43-.29,12.61,12.61,0,0,0-1.5-.11,3.71,3.71,0,0,0-2.36.63A2.24,2.24,0,0,0,5.93,20a2.12,2.12,0,0,0,.58,1.67A2,2,0,0,0,8.24,22.31ZM21,24a.79.79,0,0,1-.57-.17,2.22,2.22,0,0,1-.35-.64L16.35,10.91a1.68,1.68,0,0,1-.12-.63.36.36,0,0,1,.32-.4.14.14,0,0,1,.09,0h1.55a.93.93,0,0,1,.63.17,2,2,0,0,1,.35.63l2.65,10.54L24.3,10.68a1.07,1.07,0,0,1,.28-.63,1,1,0,0,1,.64-.17h1.26a1,1,0,0,1,.64.17,1.24,1.24,0,0,1,.28.63l2.54,10.65L32.7,10.68a1.46,1.46,0,0,1,.35-.63.94.94,0,0,1,.63-.17h1.5a.35.35,0,0,1,.4.32v.08a.32.32,0,0,1-.06.23,1.82,1.82,0,0,1-.11.4L31.55,23.23a1.41,1.41,0,0,1-.35.63.85.85,0,0,1-.57.18H29.25a.89.89,0,0,1-.63-.18,1.18,1.18,0,0,1-.29-.63L25.74,13,23.26,23.23a1.18,1.18,0,0,1-.29.64.94.94,0,0,1-.63.17Zm20.44.4A12.17,12.17,0,0,1,39,24.15a6.68,6.68,0,0,1-1.84-.63,1.36,1.36,0,0,1-.52-.46,1,1,0,0,1-.11-.46v-.81c0-.34.11-.52.34-.52a.72.72,0,0,1,.29.06,3,3,0,0,0,.41.18,17.32,17.32,0,0,0,1.72.57,10.1,10.1,0,0,0,1.9.17,4.27,4.27,0,0,0,2.3-.51,1.76,1.76,0,0,0,.81-1.5,1.46,1.46,0,0,0-.41-1.1,3.71,3.71,0,0,0-1.61-.8L40,17.65A4.88,4.88,0,0,1,37.42,16a3.92,3.92,0,0,1-.81-2.3A3.6,3.6,0,0,1,37,12a4.18,4.18,0,0,1,1.15-1.32,5,5,0,0,1,1.67-.81,8,8,0,0,1,2-.29,6.76,6.76,0,0,1,1.1.06l1,.17c.35.06.63.18.92.23a2,2,0,0,1,.7.29c.23.12.4.23.46.4a.74.74,0,0,1,.11.52V12c0,.35-.11.52-.34.52a1.62,1.62,0,0,1-.58-.17,7.29,7.29,0,0,0-3-.64,3.77,3.77,0,0,0-2.13.46,1.48,1.48,0,0,0-.75,1.44,1.69,1.69,0,0,0,.46,1.15,6.11,6.11,0,0,0,1.73.87l2.25.69a4.6,4.6,0,0,1,2.47,1.55A3.44,3.44,0,0,1,47,20.07a3.81,3.81,0,0,1-.41,1.84,4.49,4.49,0,0,1-1.15,1.38,4.68,4.68,0,0,1-1.78.86,8.55,8.55,0,0,1-2.19.29Z"/><path class="cls-1" d="M44.44,32.21c-5.24,3.86-12.83,5.93-19.34,5.93a35.12,35.12,0,0,1-23.66-9c-.52-.46-.05-1,.52-.69a47.67,47.67,0,0,0,23.66,6.28A47.39,47.39,0,0,0,43.7,31C44.56,30.6,45.31,31.58,44.44,32.21Zm2.19-2.53c-.69-.86-4.43-.4-6.1-.23-.52.06-.58-.4-.12-.69,3-2.07,7.89-1.5,8.47-.81s-.18,5.65-2.94,8c-.4.34-.86.17-.63-.29.57-1.56,2-5.13,1.32-6Z"/><rect class="cls-2" width="72.82" height="43.63"/></g></g></svg>