<?xml version="1.0" encoding="utf-8"?><svg xmlns="http://www.w3.org/2000/svg" viewBox="0 0 136.84 200"><defs><style>.cls-1{fill:#d6b8c4;}.cls-2{fill:#292c2c;}</style></defs><title>client</title><g id="Layer_2" data-name="Layer 2"><g id="Layer_1-2" data-name="Layer 1"><polygon class="cls-1" points="68.63 63.16 42.16 115.79 52.96 115.79 68.59 84.69 83.98 115.79 94.68 115.79 68.63 63.16"/><polygon class="cls-2" points="126.05 200 136.84 200 99.79 126.32 89.01 126.32 120.76 189.47 16.09 189.47 47.83 126.32 37.05 126.32 0 200 10.79 200 10.87 199.84 125.97 199.84 126.05 200"/><path class="cls-2" d="M68.42,0a21.06,21.06,0,1,0,21,21.05A21.05,21.05,0,0,0,68.42,0Zm0,31.58A10.53,10.53,0,1,1,79,21.05,10.53,10.53,0,0,1,68.42,31.58Z"/></g></g></svg>