<svg id="Testimonial_Icon" data-name="Testimonial Icon" xmlns="http://www.w3.org/2000/svg" width="58.879" height="58.879" viewBox="0 0 58.879 58.879">
  <g id="Layer_1" data-name="Layer 1">
    <path id="Path_920" data-name="Path 920" d="M29.439,0A29.439,29.439,0,1,0,58.879,29.439,29.439,29.439,0,0,0,29.439,0Zm0,55.779A26.339,26.339,0,1,1,55.779,29.439,26.339,26.339,0,0,1,29.439,55.779Z" fill="#292c2c"/>
    <path id="Path_921" data-name="Path 921" d="M81.409,66.684,89.2,51.19H86.025l-4.6,9.156L76.89,51.19H73.74Z" transform="translate(-52.031 -36.12)" fill="#f7758d"/>
    <path id="Path_922" data-name="Path 922" d="M85.182,106.71a6.182,6.182,0,1,0,4.377,1.816A6.182,6.182,0,0,0,85.182,106.71Zm0,9.294a3.1,3.1,0,1,1,3.1-3.1A3.1,3.1,0,0,1,85.182,116Z" transform="translate(-55.743 -75.295)" fill="#292c2c"/>
  </g>
</svg>
