<?xml version="1.0" encoding="utf-8"?>
<!-- Generator: Adobe Illustrator 24.0.1, SVG Export Plug-In . SVG Version: 6.00 Build 0)  -->
<svg version="1.1" id="Layer_1" xmlns="http://www.w3.org/2000/svg" xmlns:xlink="http://www.w3.org/1999/xlink" x="0px" y="0px"
	 viewBox="0 0 75 69.4" style="enable-background:new 0 0 75 69.4;" xml:space="preserve">
<style type="text/css">
	.st0{fill:#B0ADA7;}
</style>
<title>iso logo</title>
<g id="Layer_2_1_">
	<g id="Layer_3">
		<polygon class="st0" points="48.3,37.5 32.8,59.3 75,59.3 40.7,11.6 35.1,19.4 		"/>
		<polygon class="st0" points="41,37.6 31.4,24.5 6.4,59.3 25.5,59.3 		"/>
	</g>
	<g id="Layer_4">
		<path class="st0" d="M36.3,62.7h1.2l3.2,6.6h-1.3l-0.7-1.6h-3.4l-0.7,1.6h-1.3L36.3,62.7z M38.1,66.7l-1.2-2.6l-1.2,2.6H38.1z"/>
		<path class="st0" d="M41.5,65.8h3V67h-3V65.8z"/>
		<path class="st0" d="M46.5,62.7h1.3v5.5h3.8v1h-5L46.5,62.7z"/>
		<path class="st0" d="M53.3,62.7h1.3v6.5h-1.3V62.7z"/>
		<path class="st0" d="M56.6,66L56.6,66c0.1-1.9,1.7-3.4,3.6-3.4c0,0,0.1,0,0.1,0c1,0,1.9,0.3,2.7,0.9l-0.8,0.9
			c-0.6-0.5-1.3-0.7-2-0.7c-1.3,0-2.3,1-2.3,2.3c0,0,0,0,0,0l0,0c0,1.3,1,2.3,2.2,2.3c0.1,0,0.1,0,0.2,0c0.6,0,1.2-0.2,1.7-0.5v-1.2
			h-1.8v-1h3.1v2.8c-0.9,0.7-1.9,1-3,1c-1.9,0.2-3.5-1.2-3.7-3.1C56.6,66.2,56.6,66.1,56.6,66z"/>
		<path class="st0" d="M65.3,62.7h1.2l3.8,4.5v-4.5h1.2v6.5h-1l-4-4.7v4.7h-1.3V62.7z"/>
		<path class="st0" d="M3.8,49.3l-0.5-1.1l5.7-2.8l0.5,1.1L3.8,49.3z"/>
		<path class="st0" d="M7.5,44.7l-1-0.5c0.3-0.7,0.4-1.6,0.2-2.3C6.4,41.2,6,40.8,5.5,41l0,0c-0.4,0.1-0.6,0.5-0.5,1.8
			c0.1,1.5,0,2.4-1.1,2.8l0,0c-1,0.3-2-0.4-2.4-1.7c-0.3-0.9-0.3-1.8,0-2.6l1,0.4c-0.2,0.6-0.3,1.3-0.1,2c0.2,0.7,0.6,1,1,0.9l0,0
			c0.5-0.1,0.6-0.5,0.5-1.9S4,40.2,5,39.9l0,0c1.1-0.3,2.1,0.4,2.5,1.8C7.8,42.7,7.8,43.7,7.5,44.7z"/>
		<path class="st0" d="M3.4,38.7L3.4,38.7c-1.9,0-3.4-1.5-3.4-3.4c0,0,0-0.1,0-0.1c-0.2-1.9,1.1-3.5,3-3.7c0,0,0.1,0,0.1,0l0,0
			c1.9,0,3.4,1.5,3.4,3.4c0,0.1,0,0.1,0,0.2C6.7,36.9,5.3,38.5,3.4,38.7C3.5,38.7,3.4,38.7,3.4,38.7z M3.2,32.7L3.2,32.7
			C1.9,32.7,1,33.8,1,35c0,0,0,0.1,0,0.1c0,1.2,1,2.2,2.2,2.2c0,0,0.1,0,0.1,0l0,0c1.2,0,2.2-1.1,2.2-2.3c0,0,0-0.1,0-0.1
			c0-1.2-1-2.2-2.2-2.3C3.3,32.7,3.2,32.7,3.2,32.7L3.2,32.7z"/>
		<path class="st0" d="M6.1,27.6l-1-2.8c-0.4-1.1-0.7-1.6-1.2-1.8c-0.5-0.2-1.1,0.1-1.2,0.7c0,0,0,0.1,0,0.1c-0.2,0.6,0,1.3,0.4,1.8
			l-0.8,0.6c-0.7-0.8-0.8-1.9-0.5-2.8c0.4-1.3,1.4-2,2.5-1.6l0,0c0.9,0.3,1.3,1,1.8,2.5l0.6,1.7l1-3.1l0.9,0.3l-1.5,4.8L6.1,27.6z"
			/>
		<path class="st0" d="M5.9,16.6l-1.7,3l-0.8-0.5L5.8,15l0.7,0.4l3.2,5.4L9,22L5.9,16.6z"/>
		<path class="st0" d="M9.2,15.5L9.2,15.5c-1.2-1.1-1.3-3-0.2-4.2s3-1.3,4.2-0.2l0,0c1.3,1,1.6,3,0.5,4.3c0,0-0.1,0.1-0.1,0.1
			c-1.1,1.2-3,1.3-4.2,0.2C9.3,15.6,9.2,15.6,9.2,15.5z M12.4,12L12.4,12c-0.7-0.8-2-0.9-2.8-0.2c0,0,0,0,0,0
			c-0.7,0.8-0.4,2,0.5,2.8l0,0c0.7,0.8,2,0.9,2.8,0.2c0,0,0,0,0,0C13.6,14,13.3,12.8,12.4,12z"/>
		<path class="st0" d="M14.4,10L14.4,10c-1-1.3-0.8-3.3,0.6-4.3c0,0,0.1-0.1,0.1-0.1c1.4-0.9,3.2-0.6,4.2,0.8c0,0.1,0.1,0.1,0.1,0.2
			l0,0c1,1.3,0.8,3.3-0.6,4.3c0,0-0.1,0.1-0.1,0.1c-1.4,0.9-3.2,0.6-4.2-0.8C14.5,10.1,14.4,10.1,14.4,10z M18.4,7.3L18.4,7.3
			c-0.5-1-1.7-1.4-2.7-0.9c0,0,0,0-0.1,0c-0.9,0.6-0.9,1.8-0.2,2.8l0,0c0.5,1,1.7,1.4,2.7,0.9c0,0,0,0,0.1,0C19,9.6,19,8.4,18.4,7.3
			L18.4,7.3z"/>
		<path class="st0" d="M21,3.8l-1,0.8l-0.6-0.7l1.5-1.2l0.8-0.3l2.5,5.8L23,8.6L21,3.8z"/>
		<path class="st0" d="M27.6,3.7L27.6,3.7c-0.2-1.8,1.2-3.5,3.1-3.6c0,0,0.1,0,0.1,0c1-0.1,2,0.1,2.8,0.7L33,1.6
			c-0.6-0.4-1.3-0.6-2-0.6c-1.2,0.1-2.1,1.2-2,2.4c0,0,0,0,0,0.1l0,0c0.1,1.2,1.2,2.1,2.4,2c0,0,0.1,0,0.1,0c0.7-0.1,1.4-0.4,1.9-1
			l0.8,0.6c-0.6,0.8-1.6,1.3-2.7,1.4c-1.8,0.3-3.5-0.9-3.9-2.7C27.7,3.8,27.6,3.7,27.6,3.7z"/>
		<path class="st0" d="M36,0l5.1,0.7l-0.1,1l-3.9-0.5l-0.2,1.6l3.5,0.5l-0.1,1l-3.5-0.5l-0.2,1.7l4,0.5l-0.1,1l-5.1-0.7L36,0z"/>
		<path class="st0" d="M43.7,1.3l2.9,1.1c0.7,0.2,1.3,0.7,1.6,1.3c0.2,0.5,0.2,1,0,1.5l0,0c-0.3,0.9-1.3,1.4-2.2,1.2l0.9,2.9
			l-1.3-0.5l-0.8-2.7l0,0l-1.5-0.5l-0.8,2l-1.1-0.4L43.7,1.3z M45.3,5.3c0.8,0.3,1.5,0.1,1.7-0.5l0,0c0.2-0.6-0.1-1.2-1-1.5
			l-1.7-0.6l-0.8,2L45.3,5.3z"/>
		<path class="st0" d="M52,6.5l-1.8-1.2l0.6-0.8l4.6,3.2l-0.6,0.8L53,7.2l-3,4.4l-1-0.7L52,6.5z"/>
		<path class="st0" d="M56.9,9l0.9,0.8l-4.4,4.6l-0.9-0.8L56.9,9z"/>
		<path class="st0" d="M59.7,11.8l3.1,4.1l-0.8,0.6l-2.4-3.2l-1.4,1l2.1,2.8l-0.8,0.6L57.4,15l-2.1,1.5l-0.7-1L59.7,11.8z"/>
		<path class="st0" d="M63.8,17.9l0.6,1.1l-5.6,2.9l-0.6-1.1L63.8,17.9z"/>
		<path class="st0" d="M65.5,21.3l1.5,4.9l-1,0.3l-1.2-3.7l-1.6,0.5l1,3.3l-1,0.3l-1-3.3l-1.6,0.5l1.3,3.8l-0.9,0.3l-1.6-4.9
			L65.5,21.3z"/>
		<path class="st0" d="M67.5,28.9l0.2,2.6c0.1,2.2-1.1,3.8-2.9,3.9l0,0c-1.8,0.1-3.2-1.3-3.4-3.5l-0.2-2.6L67.5,28.9z M62.4,31.8
			c0,1.2,0.9,2.2,2.1,2.2c0.1,0,0.1,0,0.2,0l0,0c1.2-0.1,2.1-1.1,2-2.3c0-0.1,0-0.1,0-0.2l-0.1-1.4l-4.3,0.3L62.4,31.8z"/>
	</g>
</g>
</svg>
