<?xml version="1.0" encoding="utf-8"?><svg xmlns="http://www.w3.org/2000/svg" viewBox="0 0 239.83 218.91"><defs><style>.cls-1{fill:#1d1d1b;}.cls-2{fill:#fff;}</style></defs><title>home-icon</title><g id="Layer_2" data-name="Layer 2"><g id="Layer_1-2" data-name="Layer 1"><path class="cls-1" d="M149.6,33.9A81.08,81.08,0,0,1,196.67,84h11.52A92.13,92.13,0,0,0,149.6,22.15Z"/><path class="cls-1" d="M43.16,84A81.08,81.08,0,0,1,90.23,33.9V22.15A92.13,92.13,0,0,0,31.64,84Z"/><path class="cls-1" d="M90.23,184A81.13,81.13,0,0,1,43.16,134H31.64a92.14,92.14,0,0,0,58.59,61.8Z"/><path class="cls-1" d="M196.67,134A81.13,81.13,0,0,1,149.6,184v11.74A92.14,92.14,0,0,0,208.19,134Z"/><polygon class="cls-2" points="120.12 218.91 93.66 166.28 104.45 166.28 120.08 197.38 135.47 166.28 146.17 166.28 120.12 218.91"/><polygon class="cls-2" points="120.12 0 93.66 52.63 104.45 52.63 120.08 21.53 135.47 52.63 146.17 52.63 120.12 0"/><rect class="cls-1" y="103.46" width="239.83" height="11"/></g></g></svg>